<?xml version="1.0" encoding="utf-8"?>
<!-- Generator: Adobe Illustrator 21.0.0, SVG Export Plug-In . SVG Version: 6.00 Build 0)  -->
<svg version="1.1" id="Layer_1" xmlns="http://www.w3.org/2000/svg" xmlns:xlink="http://www.w3.org/1999/xlink" x="0px" y="0px"
	 viewBox="0 0 283.5 283.5" style="enable-background:new 0 0 283.5 283.5;" xml:space="preserve">
<style type="text/css">
	.st0{fill:#FFFFFF;}
	.st1{fill:none;stroke:#FFFFFF;stroke-width:0.876;stroke-linejoin:round;stroke-miterlimit:10;}
</style>
<g id="outline_33_">
	<polygon class="st0" points="84,129.9 114.6,224.6 224.3,224.6 189,250.8 95,250.8 61.1,146.5 	"/>
</g>
<g id="outline_31_">
	<path class="st0" d="M239.5,96.9l12.6,38.2l-28.7,88.3l-107.9,0l-7.9-24.5l97.8,0.1l0.9,0l0.3-0.8L239.5,96.9 M239.5,93l-34,104.8
		l-99.5-0.1l8.7,26.9l109.7,0l29.1-89.5L239.5,93L239.5,93z"/>
</g>
<g>
	<line class="st1" x1="112.9" y1="219.3" x2="146.4" y2="219.3"/>
	<circle class="st1" cx="146.4" cy="219.3" r="0.9"/>
</g>
<g>
	<polyline class="st1" points="108.9,207 121.2,207 125.3,202.9 175.7,202.9 	"/>
	<circle class="st1" cx="175.7" cy="202.9" r="0.9"/>
</g>
<g>
	<polyline class="st1" points="111.6,215.2 123.2,215.2 127.2,211.1 148,211.1 152.1,215.2 205.1,215.2 209.2,219.3 221.4,219.3 
		233.4,182.4 	"/>
	<ellipse transform="matrix(0.309 -0.9511 0.9511 0.309 -12.1312 348.0307)" class="st1" cx="233.4" cy="182.4" rx="0.9" ry="0.9"/>
</g>
<g>
	<polyline class="st1" points="152.9,211.1 214.9,211.1 220.7,193.2 217.9,187.6 224,169 229.3,166.7 236.5,144.6 	"/>
	<circle class="st1" cx="152.9" cy="211.1" r="0.9"/>
	<ellipse transform="matrix(0.309 -0.9511 0.9511 0.309 25.907 324.8434)" class="st1" cx="236.5" cy="144.6" rx="0.9" ry="0.9"/>
</g>
<g>
	<polyline class="st1" points="244.6,119.6 238,139.9 240.8,145.5 232.1,172.2 226.8,174.5 222.2,188.5 	"/>
	<ellipse transform="matrix(0.309 -0.9511 0.9511 0.309 55.3314 315.2828)" class="st1" cx="244.6" cy="119.6" rx="0.9" ry="0.9"/>
	<ellipse transform="matrix(0.309 -0.9511 0.9511 0.309 -25.7208 341.6183)" class="st1" cx="222.2" cy="188.5" rx="0.9" ry="0.9"/>
</g>
<g>
	<g id="outline_29_">
		<path class="st0" d="M119.2,72.6L140,87.8l-79.6,57.7l-0.7,0.5l0.3,0.8l32.7,100.9l-32.5-23.1l-28.7-88.3L119.2,72.6 M119.2,71.1
			l-89.1,64.7l29.1,89.5L95,250.8L61.1,146.5l81-58.7L119.2,71.1L119.2,71.1z"/>
	</g>
	<g>
		<g>
			<g>
				<line class="st1" x1="123.7" y1="74.4" x2="96.2" y2="94.4"/>
				<ellipse transform="matrix(0.809 -0.5878 0.5878 0.809 -37.0813 74.5897)" class="st1" cx="96.2" cy="94.4" rx="0.9" ry="0.9"/>
			</g>
			<g>
				<polyline class="st1" points="134.2,82 123.8,89.5 122.9,95.3 82.2,124.9 				"/>
				
					<ellipse transform="matrix(0.809 -0.5878 0.5878 0.809 -57.7206 72.1432)" class="st1" cx="82.2" cy="124.9" rx="0.9" ry="0.9"/>
			</g>
			<g>
				<polyline class="st1" points="49.4,128.4 92.2,97.3 98,98.2 113.4,87 				"/>
				<ellipse transform="matrix(0.809 -0.5878 0.5878 0.809 -29.4509 83.2704)" class="st1" cx="113.4" cy="87" rx="0.9" ry="0.9"/>
				
					<ellipse transform="matrix(0.809 -0.5878 0.5878 0.809 -66.0502 53.5449)" class="st1" cx="49.4" cy="128.4" rx="0.9" ry="0.9"/>
			</g>
			<g>
				<polyline class="st1" points="127.2,76.9 117.4,84.1 116.6,89.7 99.8,102 94,101 51.1,132.2 45.4,131.3 35.5,138.5 47.5,175.4 
									"/>
				<ellipse transform="matrix(0.9511 -0.309 0.309 0.9511 -51.881 23.2677)" class="st1" cx="47.5" cy="175.4" rx="0.9" ry="0.9"/>
			</g>
			<g>
				<polyline class="st1" points="73.8,125.9 50.7,142.7 55.5,157.4 				"/>
				
					<ellipse transform="matrix(0.809 -0.5878 0.5878 0.809 -59.9306 67.3995)" class="st1" cx="73.8" cy="125.9" rx="0.9" ry="0.9"/>
				
					<ellipse transform="matrix(0.9511 -0.309 0.309 0.9511 -45.9367 24.8529)" class="st1" cx="55.5" cy="157.4" rx="0.9" ry="0.9"/>
			</g>
			<g>
				<polyline class="st1" points="119.9,92.4 77.6,123.1 76.7,128.9 55.8,144.1 68.6,183.5 65.6,188.5 81.3,236.9 				"/>
				
					<ellipse transform="matrix(0.809 -0.5878 0.5878 0.809 -31.4258 88.1094)" class="st1" cx="119.9" cy="92.4" rx="0.9" ry="0.9"/>
				
					<ellipse transform="matrix(0.9511 -0.309 0.309 0.9511 -69.2151 36.7139)" class="st1" cx="81.3" cy="236.9" rx="0.9" ry="0.9"/>
			</g>
			<g>
				<polyline class="st1" points="95.8,104.8 45.6,141.3 51.5,159.2 57,162 63,180.7 60.1,185.7 67.2,207.8 				"/>
				
					<ellipse transform="matrix(0.809 -0.5878 0.5878 0.809 -43.3248 76.3299)" class="st1" cx="95.8" cy="104.8" rx="0.9" ry="0.9"/>
				
					<ellipse transform="matrix(0.9511 -0.309 0.309 0.9511 -60.9145 30.9465)" class="st1" cx="67.2" cy="207.8" rx="0.9" ry="0.9"/>
			</g>
			<g>
				<line class="st1" x1="87.4" y1="241.4" x2="70.1" y2="188.2"/>
				
					<ellipse transform="matrix(0.9511 -0.309 0.309 0.9511 -70.3288 38.8193)" class="st1" cx="87.4" cy="241.4" rx="0.9" ry="0.9"/>
				
					<ellipse transform="matrix(0.9511 -0.309 0.309 0.9511 -54.7124 30.8624)" class="st1" cx="70.1" cy="188.2" rx="0.9" ry="0.9"/>
			</g>
			<g>
				<polyline class="st1" points="75.4,232.8 68.7,212.4 63.2,209.6 54.5,182.9 57.5,177.9 53,163.9 				"/>
				
					<ellipse transform="matrix(0.9511 -0.309 0.309 0.9511 -68.2511 34.6847)" class="st1" cx="75.4" cy="232.8" rx="0.9" ry="0.9"/>
				<ellipse transform="matrix(0.9511 -0.309 0.309 0.9511 -48.0417 24.3875)" class="st1" cx="53" cy="163.9" rx="0.9" ry="0.9"/>
			</g>
			<g>
				<polyline class="st1" points="63.3,224 49,180.1 52,175.1 41.9,144 				"/>
				<ellipse transform="matrix(0.9511 -0.309 0.309 0.9511 -66.1302 30.5281)" class="st1" cx="63.3" cy="224" rx="0.9" ry="0.9"/>
				<ellipse transform="matrix(0.9511 -0.309 0.309 0.9511 -42.44 19.9953)" class="st1" cx="41.9" cy="144" rx="0.9" ry="0.9"/>
			</g>
		</g>
	</g>
</g>
<g id="outline_27_">
	<polygon class="st0" points="200,130 119.2,71.1 30.1,135.9 43.6,93.7 119.7,38.4 208.8,103.1 	"/>
</g>
<g>
	<g id="outline_20_">
		<path class="st0" d="M163.6,39.4L238,93.5l-33.5,103.1l-24.9,0l30.4-93l0.3-0.8l-0.7-0.5l-86.1-62.6L163.6,39.4 M164,38.2
			l-44.3,0.2l89.1,64.7l-30.9,94.6l27.5,0l34-104.8L164,38.2L164,38.2z"/>
	</g>
	<g>
		<g>
			<g>
				<line class="st1" x1="200.7" y1="197.8" x2="211" y2="165.9"/>
				
					<ellipse transform="matrix(0.309 -0.9511 0.9511 0.309 -11.9743 315.3632)" class="st1" cx="211" cy="165.9" rx="0.9" ry="0.9"/>
			</g>
			<g>
				<polyline class="st1" points="187.7,197.8 191.6,186 188.9,180.9 204.5,132.9 				"/>
				
					<ellipse transform="matrix(0.309 -0.9511 0.9511 0.309 14.8659 286.3379)" class="st1" cx="204.5" cy="132.9" rx="0.9" ry="0.9"/>
			</g>
			<g>
				<polyline class="st1" points="228.9,110.8 212.6,161.2 207.4,163.9 201.5,182 				"/>
				
					<ellipse transform="matrix(0.309 -0.9511 0.9511 0.309 -33.8636 317.3998)" class="st1" cx="201.5" cy="182" rx="0.9" ry="0.9"/>
				
					<ellipse transform="matrix(0.309 -0.9511 0.9511 0.309 52.7985 294.3134)" class="st1" cx="228.9" cy="110.8" rx="0.9" ry="0.9"/>
			</g>
			<g>
				<polyline class="st1" points="196.4,197.8 200,186.7 197.3,181.7 203.7,161.8 208.9,159.2 225.3,108.8 230.5,106.2 234.2,94.5 
					202.8,71.7 				"/>
				
					<ellipse transform="matrix(0.5878 -0.809 0.809 0.5878 25.5967 193.6418)" class="st1" cx="202.8" cy="71.7" rx="0.9" ry="0.9"/>
			</g>
			<g>
				<polyline class="st1" points="210.7,127.2 219.5,100.1 206.9,90.9 				"/>
				
					<ellipse transform="matrix(0.309 -0.9511 0.9511 0.309 24.6366 288.2407)" class="st1" cx="210.7" cy="127.2" rx="0.9" ry="0.9"/>
				
					<ellipse transform="matrix(0.5878 -0.809 0.809 0.5878 11.7349 204.8939)" class="st1" cx="206.9" cy="90.9" rx="0.9" ry="0.9"/>
			</g>
			<g>
				<polyline class="st1" points="193.1,181.4 209.2,131.7 206.6,126.5 214.6,101.9 181,77.5 180.5,71.7 139.4,41.8 				"/>
				
					<ellipse transform="matrix(0.309 -0.9511 0.9511 0.309 -39.102 308.9506)" class="st1" cx="193.1" cy="181.4" rx="0.9" ry="0.9"/>
				
					<ellipse transform="matrix(0.5878 -0.809 0.809 0.5878 23.5959 130.0067)" class="st1" cx="139.4" cy="41.8" rx="0.9" ry="0.9"/>
			</g>
			<g>
				<polyline class="st1" points="205.2,157.2 224.4,98.2 209.2,87.1 203,88.1 187.2,76.6 186.6,70.8 167.8,57.1 				"/>
				
					<ellipse transform="matrix(0.309 -0.9511 0.9511 0.309 -7.6717 303.8098)" class="st1" cx="205.2" cy="157.2" rx="0.9" ry="0.9"/>
				
					<ellipse transform="matrix(0.5878 -0.809 0.809 0.5878 22.9775 159.3336)" class="st1" cx="167.8" cy="57.1" rx="0.9" ry="0.9"/>
			</g>
			<g>
				<line class="st1" x1="131.8" y1="41.7" x2="177.1" y2="74.7"/>
				
					<ellipse transform="matrix(0.5878 -0.809 0.809 0.5878 20.5523 123.8007)" class="st1" cx="131.8" cy="41.7" rx="0.9" ry="0.9"/>
				
					<ellipse transform="matrix(0.5878 -0.809 0.809 0.5878 12.5954 174.0388)" class="st1" cx="177.1" cy="74.7" rx="0.9" ry="0.9"/>
			</g>
			<g>
				<polyline class="st1" points="146.6,41.6 163.9,54.2 170,53.3 192.7,69.8 193.3,75.6 205.2,84.3 				"/>
				
					<ellipse transform="matrix(0.5878 -0.809 0.809 0.5878 26.7157 135.7315)" class="st1" cx="146.6" cy="41.6" rx="0.9" ry="0.9"/>
				
					<ellipse transform="matrix(0.5878 -0.809 0.809 0.5878 16.4185 200.7455)" class="st1" cx="205.2" cy="84.3" rx="0.9" ry="0.9"/>
			</g>
			<g>
				<polyline class="st1" points="161.5,41.7 198.9,68.8 199.4,74.6 225.8,93.8 				"/>
				
					<ellipse transform="matrix(0.5878 -0.809 0.809 0.5878 32.8571 147.8017)" class="st1" cx="161.5" cy="41.7" rx="0.9" ry="0.9"/>
				
					<ellipse transform="matrix(0.5878 -0.809 0.809 0.5878 17.1753 221.3898)" class="st1" cx="225.8" cy="93.8" rx="0.9" ry="0.9"/>
			</g>
		</g>
	</g>
</g>
</svg>
