<svg xmlns="http://www.w3.org/2000/svg" viewBox="0 0 2038.64 1942.02"><defs><style>.cls-1{fill:#5b297a;}.cls-2{fill:#359f8c;}.cls-3,.cls-5,.cls-8{fill:none;stroke-linejoin:round;stroke-width:4px;}.cls-3{stroke:#297269;}.cls-4{fill:#932358;}.cls-5{stroke:#5b297a;}.cls-6{fill:#d4572c;}.cls-7{fill:#b43127;}.cls-8{stroke:#8b1d35;}</style></defs><title>Asset 1</title><g id="Layer_2" data-name="Layer 2"><g id="full_thing" data-name="full thing"><polygon id="outline" class="cls-1" points="491.87 837.86 771.61 1702.43 1773.32 1702.25 1451.43 1941.85 592.28 1942.02 283.28 989.02 491.87 837.86"/><polygon id="outline-2" data-name="outline" class="cls-2" points="692.17 1456.54 1600.87 1457.66 1911.74 500.89 2038.64 885.09 1773.32 1702.25 771.47 1701.63 692.17 1456.54"/><polyline class="cls-3" points="719.72 1541.68 832.09 1541.68 869.6 1504.17 1329.76 1504.17"/><circle class="cls-3" cx="1329.76" cy="1504.17" r="8.06"/><polyline class="cls-3" points="743.99 1616.68 850.51 1616.68 886.3 1579.18 1076.64 1579.18 1114.14 1616.68 1598.06 1616.68 1635.53 1654.15 1747.32 1654.15 1856.91 1316.87"/><circle class="cls-3" cx="1856.91" cy="1316.87" r="8.06"/><polyline class="cls-3" points="1121.3 1579.15 1687.56 1579.18 1740.77 1415.47 1715.08 1365.05 1770.48 1194.55 1819.36 1173.61 1884.87 971.93"/><circle class="cls-3" cx="1121.3" cy="1579.15" r="8.06"/><circle class="cls-3" cx="1884.87" cy="971.93" r="8.06"/><polyline class="cls-3" points="1959.14 743.35 1898.67 929.46 1924.35 979.86 1845.03 1223.99 1796.16 1244.95 1754.56 1373"/><circle class="cls-3" cx="1959.14" cy="743.34" r="8.06"/><circle class="cls-3" cx="1754.55" cy="1373" r="8.06"/><polygon id="outline-3" data-name="outline" class="cls-4" points="1022.62 453.25 283.28 989.02 592.28 1942.02 265.66 1709.55 0 892.5 813.87 301.19 1022.62 453.25"/><line class="cls-5" x1="854.73" y1="330.95" x2="603.9" y2="513.16"/><circle class="cls-5" cx="603.9" cy="513.16" r="8.06"/><polyline class="cls-5" points="950.28 400.55 855.85 469.16 847.55 521.56 475.27 792.03"/><circle class="cls-5" cx="475.28" cy="792.04" r="8.06"/><polyline class="cls-5" points="175.87 824.17 567.37 539.73 619.71 548.02 760.74 445.56"/><circle class="cls-5" cx="760.74" cy="445.56" r="8.06"/><circle class="cls-5" cx="175.87" cy="824.17" r="8.06"/><polyline class="cls-5" points="886.57 354.14 796.87 419.31 789.95 470.69 635.96 582.57 583.58 574.27 192.09 858.71 139.74 850.42 49.3 916.13 158.89 1253.41"/><circle class="cls-5" cx="158.89" cy="1253.41" r="8.06"/><polyline class="cls-5" points="398.52 801.43 187.93 954.44 231.74 1089.28"/><circle class="cls-5" cx="398.52" cy="801.43" r="8.06"/><circle class="cls-5" cx="231.74" cy="1089.28" r="8.06"/><polyline class="cls-5" points="819.72 495.41 433.85 775.76 425.55 828.16 234.14 967.23 351.12 1327.25 323.9 1372.93 467.39 1814.56"/><circle class="cls-5" cx="819.72" cy="495.41" r="8.06"/><circle class="cls-5" cx="467.39" cy="1814.55" r="8.06"/><polyline class="cls-5" points="599.85 608.84 141.72 941.66 194.9 1105.38 245.31 1131.07 300.71 1301.57 273.48 1347.24 339.02 1548.91"/><circle class="cls-5" cx="599.85" cy="608.84" r="8.06"/><circle class="cls-5" cx="339.02" cy="1548.91" r="8.06"/><line class="cls-5" x1="523.01" y1="1856.27" x2="364.92" y2="1369.72"/><circle class="cls-5" cx="523.01" cy="1856.27" r="8.06"/><circle class="cls-5" cx="364.92" cy="1369.72" r="8.06"/><polyline class="cls-5" points="413.3 1777.5 352.82 1591.39 302.42 1565.7 223.1 1321.57 250.31 1275.89 208.71 1147.84"/><circle class="cls-5" cx="413.3" cy="1777.5" r="8.06"/><circle class="cls-5" cx="208.71" cy="1147.84" r="8.06"/><polyline class="cls-5" points="303.14 1697.37 172.69 1295.89 199.91 1250.2 107.66 966.29"/><circle class="cls-5" cx="303.14" cy="1697.37" r="8.06"/><circle class="cls-5" cx="107.66" cy="966.29" r="8.06"/><polygon id="outline-4" data-name="outline" class="cls-6" points="1551.89 838.79 813.87 301.19 0 892.5 123.16 507.09 818.13 1.97 1632 593.28 1551.89 838.79"/><polygon id="outline-5" data-name="outline" class="cls-7" points="1350.07 1457.35 1632 593.28 818.13 1.97 1222.74 0 1911.74 500.89 1600.87 1457.66 1350.07 1457.35"/><line class="cls-8" x1="1557.72" y1="1457.77" x2="1652.32" y2="1166.72"/><circle class="cls-8" cx="1652.32" cy="1166.72" r="8.06"/><polyline class="cls-8" points="1439.56 1457.46 1474.34 1350.4 1450.26 1303.13 1592.45 865.5"/><circle class="cls-8" cx="1592.45" cy="865.5" r="8.06"/><polyline class="cls-8" points="1815.79 663.51 1666.25 1123.74 1619.03 1147.8 1565.16 1313.59"/><circle class="cls-8" cx="1565.16" cy="1313.59" r="8.06"/><circle class="cls-8" cx="1815.79" cy="663.51" r="8.06"/><polyline class="cls-8" points="1518.24 1458 1551.36 1356.06 1526.76 1310.43 1585.58 1129.4 1632.83 1105.33 1782.37 645.1 1829.59 621.04 1864.13 514.72 1577.22 306.27"/><circle class="cls-8" cx="1577.22" cy="306.27" r="8.06"/><polyline class="cls-8" points="1649.03 812.78 1729.47 565.21 1614.76 481.87"/><circle class="cls-8" cx="1649.03" cy="812.78" r="8.06"/><circle class="cls-8" cx="1614.76" cy="481.87" r="8.06"/><polyline class="cls-8" points="1488.14 1307.93 1635.53 854.31 1611.45 807.04 1684.56 582.02 1378.31 359.52 1373.47 306.57 997.81 33.63"/><circle class="cls-8" cx="1488.14" cy="1307.93" r="8.06"/><circle class="cls-8" cx="997.81" cy="33.63" r="8.06"/><polyline class="cls-8" points="1599.35 1086.92 1774.36 548.39 1635.11 447.19 1579.22 456.05 1434.18 350.67 1429.37 297.71 1257.8 173.08"/><circle class="cls-8" cx="1599.35" cy="1086.92" r="8.06"/><circle class="cls-8" cx="1257.8" cy="173.08" r="8.06"/><line class="cls-8" x1="928.29" y1="32.57" x2="1342.18" y2="333.27"/><circle class="cls-8" cx="928.29" cy="32.57" r="8.06"/><circle class="cls-8" cx="1342.18" cy="333.27" r="8.06"/><polyline class="cls-8" points="1063.36 31.81 1221.67 146.83 1277.55 137.98 1485.22 288.87 1490.05 341.82 1598.97 420.96"/><circle class="cls-8" cx="1063.36" cy="31.81" r="8.06"/><circle class="cls-8" cx="1598.97" cy="420.96" r="8.06"/><polyline class="cls-8" points="1199.57 31.89 1541.09 280.02 1545.92 332.97 1787.44 508.44"/><circle class="cls-8" cx="1199.57" cy="31.89" r="8.06"/><circle class="cls-8" cx="1787.44" cy="508.44" r="8.06"/></g></g></svg>