<?xml version="1.0" encoding="utf-8"?>
<!-- Generator: Adobe Illustrator 21.0.0, SVG Export Plug-In . SVG Version: 6.00 Build 0)  -->
<svg version="1.1" id="Layer_1" xmlns="http://www.w3.org/2000/svg" xmlns:xlink="http://www.w3.org/1999/xlink" width='550px' height="600px"
	 viewBox="10 125 236.4 83.5">
	 <!-- 0 0 536.4 283.5 -->
<style type="text/css">
	.st0{fill:#5C2B7A;}
	.st1{display:none;}
	.st2{display:inline;}
	.st3{fill:none;stroke:#942459;stroke-width:0.7801;stroke-linejoin:round;stroke-miterlimit:10;}
	.st4{fill:#37A08D;}
	.st5{fill:none;stroke:#2A736A;stroke-width:0.7801;stroke-linejoin:round;stroke-miterlimit:10;}
	.st6{display:inline;fill:none;stroke:#2A736A;stroke-width:0.7801;stroke-linejoin:round;stroke-miterlimit:10;}
	.st7{fill:#942459;}
	.st8{fill:none;stroke:#5C2B7A;stroke-width:0.7801;stroke-linejoin:round;stroke-miterlimit:10;}
	.st9{fill:#D4582C;}
	.st10{fill:none;stroke:#B53327;stroke-width:0.7801;stroke-linejoin:round;stroke-miterlimit:10;}
	.st11{fill:#B53327;}
	.st12{fill:none;stroke:#8C1E36;stroke-width:0.7801;stroke-linejoin:round;stroke-miterlimit:10;}
</style>
<g id="colored_logo">
	<g>
		<g>
			<polygon id="outline_9_" class="st0" points="88.1,128.1 115.3,212.4 213,212.4 181.6,235.8 97.8,235.8 67.7,142.8 			"/>
			<g class="st1">
				<g class="st2">
					<g>
						<line class="st3" x1="71.7" y1="140" x2="80.9" y2="168.3"/>
						
							<ellipse transform="matrix(0.9511 -0.309 0.309 0.9511 -48.0607 33.2257)" class="st3" cx="80.9" cy="168.3" rx="0.8" ry="0.8"/>
					</g>
					<g>
						<polyline class="st3" points="81,133.2 84.4,143.6 89,146 102.8,188.7 						"/>
						
							<ellipse transform="matrix(0.9511 -0.309 0.309 0.9511 -53.2678 41.0157)" class="st3" cx="102.8" cy="188.7" rx="0.8" ry="0.8"/>
					</g>
					<g>
						<polyline class="st3" points="96.8,217.4 82.2,172.5 84.6,167.9 79.3,151.8 						"/>
						
							<ellipse transform="matrix(0.9511 -0.309 0.309 0.9511 -43.012 31.9373)" class="st3" cx="79.3" cy="151.8" rx="0.8" ry="0.8"/>
						
							<ellipse transform="matrix(0.9511 -0.309 0.309 0.9511 -62.4436 40.5551)" class="st3" cx="96.8" cy="217.4" rx="0.8" ry="0.8"/>
					</g>
					<g>
						<polyline class="st3" points="74.8,137.7 78,147.6 82.5,149.8 88.3,167.5 85.9,172.1 100.5,216.9 98.2,221.5 101.5,231.9 
							136.1,231.9 						"/>
						<circle class="st3" cx="136.1" cy="231.9" r="0.8"/>
					</g>
					<g>
						<polyline class="st3" points="101.4,196.1 109.3,220.2 123.1,220.2 						"/>
						
							<ellipse transform="matrix(0.9511 -0.309 0.309 0.9511 -55.6257 40.9325)" class="st3" cx="101.4" cy="196.1" rx="0.8" ry="0.8"/>
						<circle class="st3" cx="123.1" cy="220.2" r="0.8"/>
					</g>
					<g>
						<polyline class="st3" points="85.7,147.8 100.1,192 104.7,194.4 111.8,216.3 148.7,216.3 152.2,220.2 197.4,220.2 						"/>
						
							<ellipse transform="matrix(0.9511 -0.309 0.309 0.9511 -41.4724 33.721)" class="st3" cx="85.7" cy="147.8" rx="0.8" ry="0.8"/>
						<circle class="st3" cx="197.4" cy="220.2" r="0.8"/>
					</g>
					<g>
						<polyline class="st3" points="89.6,171.6 106.7,224.1 123.5,224.1 127.4,220.2 144.8,220.2 148.3,224.1 168.9,224.1 						"/>
						
							<ellipse transform="matrix(0.9511 -0.309 0.309 0.9511 -48.6396 36.0899)" class="st3" cx="89.6" cy="171.6" rx="0.8" ry="0.8"/>
						<circle class="st3" cx="168.9" cy="224.1" r="0.8"/>
					</g>
					<g>
						<line class="st3" x1="203" y1="216.3" x2="153.1" y2="216.3"/>
						<circle class="st3" cx="203" cy="216.3" r="0.8"/>
						<circle class="st3" cx="153.1" cy="216.3" r="0.8"/>
					</g>
					<g>
						<polyline class="st3" points="192.4,224.1 173.3,224.1 169.4,228 144.4,228 140.9,224.1 127.8,224.1 						"/>
						<circle class="st3" cx="192.4" cy="224.1" r="0.8"/>
						<circle class="st3" cx="127.8" cy="224.1" r="0.8"/>
					</g>
					<g>
						<polyline class="st3" points="181.6,231.9 140.5,231.9 137,228 107.9,228 						"/>
						<circle class="st3" cx="181.6" cy="231.9" r="0.8"/>
						<circle class="st3" cx="107.9" cy="228" r="0.8"/>
					</g>
				</g>
			</g>
		</g>
		<g>
			<polygon id="outline_8_" class="st4" points="107.6,188.4 196.2,188.5 226.5,95.2 238.9,132.7 213,212.4 115.3,212.3 			"/>
			<g>
				<g>
					<g>
						<line class="st5" x1="113.8" y1="207.7" x2="143.6" y2="207.7"/>
						<circle class="st5" cx="143.6" cy="207.7" r="0.8"/>
					</g>
					<g>
						<polyline class="st5" points="110.3,196.7 121.2,196.7 124.9,193.1 169.8,193.1 						"/>
						<circle class="st5" cx="169.8" cy="193.1" r="0.8"/>
					</g>
					<g class="st1">
						<polyline class="st6" points="195.2,207.7 148,207.7 144.4,204 127.4,204 						"/>
						<circle class="st6" cx="127.4" cy="204" r="0.8"/>
						<circle class="st6" cx="195.2" cy="207.7" r="0.8"/>
					</g>
					<g>
						<polyline class="st5" points="112.6,204 123,204 126.5,200.4 145.1,200.4 148.7,204 195.9,204 199.6,207.7 210.5,207.7 
							221.2,174.8 						"/>
						
							<ellipse transform="matrix(0.309 -0.9511 0.9511 0.309 -13.4333 331.1337)" class="st5" cx="221.2" cy="174.8" rx="0.8" ry="0.8"/>
					</g>
					<g class="st1">
						<polyline class="st6" points="176.4,196.7 201.7,196.7 206,183.6 						"/>
						<circle class="st6" cx="176.4" cy="196.7" r="0.8"/>
						
							<ellipse transform="matrix(0.309 -0.9511 0.9511 0.309 -32.2494 322.7828)" class="st6" cx="206" cy="183.6" rx="0.8" ry="0.8"/>
					</g>
					<g class="st1">
						<polyline class="st6" points="125.6,196.7 172.1,196.7 175.8,193.1 198.8,193.1 210.2,158 215,155.9 229,112.9 						"/>
						<circle class="st6" cx="125.6" cy="196.7" r="0.8"/>
						
							<ellipse transform="matrix(0.309 -0.9511 0.9511 0.309 50.895 295.7675)" class="st6" cx="229" cy="112.9" rx="0.8" ry="0.8"/>
					</g>
					<g>
						<polyline class="st5" points="149.4,200.4 204.7,200.4 209.8,184.4 207.3,179.5 212.7,162.9 217.5,160.8 223.9,141.2 						
							"/>
						<circle class="st5" cx="149.4" cy="200.4" r="0.8"/>
						
							<ellipse transform="matrix(0.309 -0.9511 0.9511 0.309 20.4423 310.4837)" class="st5" cx="223.9" cy="141.2" rx="0.8" ry="0.8"/>
					</g>
					<g class="st1">
						<line class="st6" x1="227" y1="106.4" x2="211.6" y2="153.8"/>
						
							<ellipse transform="matrix(0.309 -0.9511 0.9511 0.309 55.6777 289.392)" class="st6" cx="227" cy="106.4" rx="0.8" ry="0.8"/>
						
							<ellipse transform="matrix(0.309 -0.9511 0.9511 0.309 -9.993979e-02 307.5153)" class="st6" cx="211.6" cy="153.8" rx="0.8" ry="0.8"/>
					</g>
					<g>
						<polyline class="st5" points="231.1,118.9 225.2,137 227.7,141.9 220,165.8 215.2,167.8 211.2,180.3 						"/>
						
							<ellipse transform="matrix(0.309 -0.9511 0.9511 0.309 46.6468 301.9694)" class="st5" cx="231.1" cy="118.9" rx="0.8" ry="0.8"/>
						
							<ellipse transform="matrix(0.309 -0.9511 0.9511 0.309 -25.5358 325.4229)" class="st5" cx="211.2" cy="180.3" rx="0.8" ry="0.8"/>
					</g>
					<g class="st1">
						<polyline class="st6" points="235.2,131.5 222.5,170.7 217.7,172.7 208.8,200.4 						"/>
						
							<ellipse transform="matrix(0.309 -0.9511 0.9511 0.309 37.4612 314.597)" class="st6" cx="235.2" cy="131.5" rx="0.8" ry="0.8"/>
						
							<ellipse transform="matrix(0.309 -0.9511 0.9511 0.309 -46.3487 337.007)" class="st6" cx="208.8" cy="200.4" rx="0.8" ry="0.8"/>
					</g>
				</g>
			</g>
		</g>
		<g>
			<polygon id="outline_7_" class="st7" points="139.8,90.6 67.7,142.8 97.8,235.8 66,213.1 40.1,133.4 119.5,75.8 			"/>
			<g>
				<g>
					<g>
						<line class="st8" x1="123.4" y1="78.7" x2="99" y2="96.4"/>
						<ellipse transform="matrix(0.809 -0.5878 0.5878 0.809 -37.7805 76.5943)" class="st8" cx="99" cy="96.4" rx="0.8" ry="0.8"/>
					</g>
					<g>
						<polyline class="st8" points="132.8,85.5 123.5,92.1 122.7,97.3 86.4,123.6 						"/>
						
							<ellipse transform="matrix(0.809 -0.5878 0.5878 0.809 -56.1612 74.4154)" class="st8" cx="86.4" cy="123.6" rx="0.8" ry="0.8"/>
					</g>
					<g>
						<polyline class="st8" points="57.2,126.8 95.4,99 100.5,99.8 114.3,89.8 						"/>
						
							<ellipse transform="matrix(0.809 -0.5878 0.5878 0.809 -30.9851 84.325)" class="st8" cx="114.3" cy="89.8" rx="0.8" ry="0.8"/>
						
							<ellipse transform="matrix(0.809 -0.5878 0.5878 0.809 -63.5793 57.8524)" class="st8" cx="57.2" cy="126.8" rx="0.8" ry="0.8"/>
					</g>
					<g>
						<polyline class="st8" points="126.5,80.9 117.8,87.3 117.1,92.3 102.1,103.2 97,102.4 58.8,130.1 53.7,129.3 44.9,135.7 
							55.6,168.6 						"/>
						
							<ellipse transform="matrix(0.9511 -0.309 0.309 0.9511 -49.3872 25.4282)" class="st8" cx="55.6" cy="168.6" rx="0.8" ry="0.8"/>
					</g>
					<g>
						<polyline class="st8" points="78.9,124.5 58.4,139.5 62.7,152.6 						"/>
						
							<ellipse transform="matrix(0.809 -0.5878 0.5878 0.809 -58.1294 70.1908)" class="st8" cx="78.9" cy="124.5" rx="0.8" ry="0.8"/>
						
							<ellipse transform="matrix(0.9511 -0.309 0.309 0.9511 -44.0935 26.84)" class="st8" cx="62.7" cy="152.6" rx="0.8" ry="0.8"/>
					</g>
					<g>
						<polyline class="st8" points="120,94.7 82.4,122 81.6,127.2 62.9,140.7 74.3,175.8 71.7,180.3 85.7,223.3 						"/>
						
							<ellipse transform="matrix(0.809 -0.5878 0.5878 0.809 -32.7439 88.6345)" class="st8" cx="120" cy="94.7" rx="0.8" ry="0.8"/>
						
							<ellipse transform="matrix(0.9511 -0.309 0.309 0.9511 -64.8245 37.403)" class="st8" cx="85.7" cy="223.3" rx="0.8" ry="0.8"/>
					</g>
					<g>
						<polyline class="st8" points="98.6,105.8 53.9,138.2 59.1,154.2 64,156.7 69.4,173.3 66.8,177.8 73.1,197.4 						"/>
						
							<ellipse transform="matrix(0.809 -0.5878 0.5878 0.809 -43.3408 78.144)" class="st8" cx="98.6" cy="105.8" rx="0.8" ry="0.8"/>
						
							<ellipse transform="matrix(0.9511 -0.309 0.309 0.9511 -57.4322 32.2668)" class="st8" cx="73.1" cy="197.4" rx="0.8" ry="0.8"/>
					</g>
					<g>
						<line class="st8" x1="91.1" y1="227.4" x2="75.7" y2="180"/>
						
							<ellipse transform="matrix(0.9511 -0.309 0.309 0.9511 -65.8163 39.278)" class="st8" cx="91.1" cy="227.4" rx="0.8" ry="0.8"/>
						
							<ellipse transform="matrix(0.9511 -0.309 0.309 0.9511 -51.9088 32.1918)" class="st8" cx="75.7" cy="180" rx="0.8" ry="0.8"/>
					</g>
					<g>
						<polyline class="st8" points="80.4,219.7 74.5,201.6 69.6,199.1 61.8,175.3 64.5,170.8 60.4,158.3 						"/>
						
							<ellipse transform="matrix(0.9511 -0.309 0.309 0.9511 -63.966 35.5959)" class="st8" cx="80.4" cy="219.7" rx="0.8" ry="0.8"/>
						
							<ellipse transform="matrix(0.9511 -0.309 0.309 0.9511 -45.9682 26.4255)" class="st8" cx="60.4" cy="158.3" rx="0.8" ry="0.8"/>
					</g>
					<g>
						<polyline class="st8" points="69.6,211.9 56.9,172.8 59.6,168.3 50.6,140.6 						"/>
						
							<ellipse transform="matrix(0.9511 -0.309 0.309 0.9511 -62.0772 31.8941)" class="st8" cx="69.6" cy="211.9" rx="0.8" ry="0.8"/>
						
							<ellipse transform="matrix(0.9511 -0.309 0.309 0.9511 -40.9795 22.514)" class="st8" cx="50.6" cy="140.6" rx="0.8" ry="0.8"/>
					</g>
				</g>
			</g>
		</g>
		<g>
			<polygon id="outline_6_" class="st9" points="191.4,128.2 119.5,75.8 40.1,133.4 52.1,95.8 119.9,46.6 199.2,104.2 			"/>
			<g class="st1">
				<g class="st2">
					<g>
						<line class="st10" x1="197.7" y1="108.9" x2="173.2" y2="91.2"/>
						
							<ellipse transform="matrix(0.5878 -0.809 0.809 0.5878 -2.3354 177.738)" class="st10" cx="173.2" cy="91.2" rx="0.8" ry="0.8"/>
					</g>
					<g>
						<polyline class="st10" points="194.1,119.9 184.9,113.2 179.8,114 143.5,87.6 						"/>
						
							<ellipse transform="matrix(0.5878 -0.809 0.809 0.5878 -11.7429 152.2242)" class="st10" cx="143.5" cy="87.6" rx="0.8" ry="0.8"/>
					</g>
					<g>
						<polyline class="st10" points="131.5,60.8 169.7,88.6 170.5,93.7 184.2,103.7 						"/>
						
							<ellipse transform="matrix(0.5878 -0.809 0.809 0.5878 -7.9228 191.7896)" class="st10" cx="184.2" cy="103.7" rx="0.8" ry="0.8"/>
						
							<ellipse transform="matrix(0.5878 -0.809 0.809 0.5878 4.9907 131.4665)" class="st10" cx="131.5" cy="60.8" rx="0.8" ry="0.8"/>
					</g>
					<g>
						<polyline class="st10" points="196.5,112.6 187.8,106.2 182.8,107.1 167.8,96.2 167,91.1 128.8,63.4 128,58.3 119.2,51.9 
							91.2,72.2 						"/>
						
							<ellipse transform="matrix(0.809 -0.5878 0.5878 0.809 -25.0215 67.3839)" class="st10" cx="91.2" cy="72.2" rx="0.8" ry="0.8"/>
					</g>
					<g>
						<polyline class="st10" points="140.3,80.8 119.8,65.9 108.6,74 						"/>
						
							<ellipse transform="matrix(0.5878 -0.809 0.809 0.5878 -7.5255 146.8301)" class="st10" cx="140.3" cy="80.8" rx="0.8" ry="0.8"/>
						
							<ellipse transform="matrix(0.809 -0.5878 0.5878 0.809 -22.7589 77.9674)" class="st10" cx="108.6" cy="74" rx="0.8" ry="0.8"/>
					</g>
					<g>
						<polyline class="st10" points="181.4,110.6 143.8,83.3 138.7,84.1 120,70.6 90.1,92.2 85.1,91.1 48.4,117.7 						"/>
						
							<ellipse transform="matrix(0.5878 -0.809 0.809 0.5878 -14.737 192.3616)" class="st10" cx="181.4" cy="110.6" rx="0.8" ry="0.8"/>
						
							<ellipse transform="matrix(0.809 -0.5878 0.5878 0.809 -59.9422 50.9522)" class="st10" cx="48.4" cy="117.7" rx="0.8" ry="0.8"/>
					</g>
					<g>
						<polyline class="st10" points="164.3,93.7 119.6,61.2 106,71.1 105.1,76.5 91,86.8 85.9,85.7 69.2,97.8 						"/>
						
							<ellipse transform="matrix(0.5878 -0.809 0.809 0.5878 -8.0727 171.4932)" class="st10" cx="164.3" cy="93.7" rx="0.8" ry="0.8"/>
						
							<ellipse transform="matrix(0.809 -0.5878 0.5878 0.809 -44.2726 59.3569)" class="st10" cx="69.2" cy="97.8" rx="0.8" ry="0.8"/>
					</g>
					<g>
						<line class="st10" x1="46.2" y1="124.1" x2="86.6" y2="94.8"/>
						
							<ellipse transform="matrix(0.809 -0.5878 0.5878 0.809 -64.1318 50.8881)" class="st10" cx="46.2" cy="124.1" rx="0.8" ry="0.8"/>
						
							<ellipse transform="matrix(0.809 -0.5878 0.5878 0.809 -39.1873 69.0114)" class="st10" cx="86.6" cy="94.8" rx="0.8" ry="0.8"/>
					</g>
					<g>
						<polyline class="st10" points="50.2,111.6 65.7,100.4 66.5,94.9 86.8,80.2 91.9,81.4 102.5,73.6 						"/>
						
							<ellipse transform="matrix(0.809 -0.5878 0.5878 0.809 -55.9916 50.8426)" class="st10" cx="50.2" cy="111.6" rx="0.8" ry="0.8"/>
						
							<ellipse transform="matrix(0.809 -0.5878 0.5878 0.809 -23.7106 74.2961)" class="st10" cx="102.5" cy="73.6" rx="0.8" ry="0.8"/>
					</g>
					<g>
						<polyline class="st10" points="54.4,99 87.7,74.8 92.7,75.9 116.3,58.8 						"/>
						
							<ellipse transform="matrix(0.809 -0.5878 0.5878 0.809 -47.7823 50.8473)" class="st10" cx="54.4" cy="99" rx="0.8" ry="0.8"/>
						
							<ellipse transform="matrix(0.809 -0.5878 0.5878 0.809 -12.352 79.5687)" class="st10" cx="116.3" cy="58.8" rx="0.8" ry="0.8"/>
					</g>
				</g>
			</g>
		</g>
		<g>
			<polygon id="outline_5_" class="st11" points="171.7,188.5 199.2,104.2 119.9,46.6 159.3,46.4 226.5,95.2 196.2,188.5 			"/>
			<g>
				<g>
					<g>
						<line class="st12" x1="192" y1="188.6" x2="201.2" y2="160.2"/>
						
							<ellipse transform="matrix(0.309 -0.9511 0.9511 0.309 -13.2936 302.041)" class="st12" cx="201.2" cy="160.2" rx="0.8" ry="0.8"/>
					</g>
					<g>
						<polyline class="st12" points="180.5,188.5 183.9,178.1 181.5,173.5 195.4,130.8 						"/>
						
							<ellipse transform="matrix(0.309 -0.9511 0.9511 0.309 10.6095 276.192)" class="st12" cx="195.4" cy="130.8" rx="0.8" ry="0.8"/>
					</g>
					<g>
						<polyline class="st12" points="217.2,111.1 202.6,156 198,158.3 192.7,174.5 						"/>
						
							<ellipse transform="matrix(0.309 -0.9511 0.9511 0.309 -32.7875 303.8547)" class="st12" cx="192.7" cy="174.5" rx="0.8" ry="0.8"/>
						
							<ellipse transform="matrix(0.309 -0.9511 0.9511 0.309 44.3911 283.2946)" class="st12" cx="217.2" cy="111.1" rx="0.8" ry="0.8"/>
					</g>
					<g>
						<polyline class="st12" points="188.1,188.6 191.4,178.6 189,174.2 194.7,156.5 199.3,154.2 213.9,109.3 218.5,107 221.9,96.6 
							193.9,76.3 						"/>
						
							<ellipse transform="matrix(0.5878 -0.809 0.809 0.5878 18.2295 188.2975)" class="st12" cx="193.9" cy="76.3" rx="0.8" ry="0.8"/>
					</g>
					<g>
						<polyline class="st12" points="200.9,125.7 208.7,101.5 197.6,93.4 						"/>
						
							<ellipse transform="matrix(0.309 -0.9511 0.9511 0.309 19.311 277.8865)" class="st12" cx="200.9" cy="125.7" rx="0.8" ry="0.8"/>
						
							<ellipse transform="matrix(0.5878 -0.809 0.809 0.5878 5.8846 198.3183)" class="st12" cx="197.6" cy="93.4" rx="0.8" ry="0.8"/>
					</g>
					<g>
						<polyline class="st12" points="185.2,173.9 199.6,129.7 197.2,125.1 204.4,103.2 174.5,81.5 174,76.3 137.4,49.7 						"/>
						
							<ellipse transform="matrix(0.309 -0.9511 0.9511 0.309 -37.4527 296.3302)" class="st12" cx="185.2" cy="173.9" rx="0.8" ry="0.8"/>
						
							<ellipse transform="matrix(0.5878 -0.809 0.809 0.5878 16.4476 131.6261)" class="st12" cx="137.4" cy="49.7" rx="0.8" ry="0.8"/>
					</g>
					<g>
						<polyline class="st12" points="196.1,152.4 213.1,99.9 199.5,90 194.1,90.9 179.9,80.6 179.5,75.4 162.7,63.3 						"/>
						
							<ellipse transform="matrix(0.309 -0.9511 0.9511 0.309 -9.4619 291.7519)" class="st12" cx="196.1" cy="152.4" rx="0.8" ry="0.8"/>
						
							<ellipse transform="matrix(0.5878 -0.809 0.809 0.5878 15.8969 157.7436)" class="st12" cx="162.7" cy="63.3" rx="0.8" ry="0.8"/>
					</g>
					<g>
						<line class="st12" x1="130.6" y1="49.6" x2="171" y2="78.9"/>
						
							<ellipse transform="matrix(0.5878 -0.809 0.809 0.5878 13.7371 126.0992)" class="st12" cx="130.6" cy="49.6" rx="0.8" ry="0.8"/>
						
							<ellipse transform="matrix(0.5878 -0.809 0.809 0.5878 6.6509 170.8397)" class="st12" cx="171" cy="78.9" rx="0.8" ry="0.8"/>
					</g>
					<g>
						<polyline class="st12" points="143.8,49.5 159.2,60.7 164.7,59.8 184.9,74.6 185.4,79.7 196,87.4 						"/>
						
							<ellipse transform="matrix(0.5878 -0.809 0.809 0.5878 19.226 136.7243)" class="st12" cx="143.8" cy="49.5" rx="0.8" ry="0.8"/>
						
							<ellipse transform="matrix(0.5878 -0.809 0.809 0.5878 10.0557 194.6238)" class="st12" cx="196" cy="87.4" rx="0.8" ry="0.8"/>
					</g>
					<g>
						<polyline class="st12" points="157.1,49.5 190.4,73.7 190.8,78.9 214.4,96 						"/>
						
							<ellipse transform="matrix(0.5878 -0.809 0.809 0.5878 24.6953 147.4737)" class="st12" cx="157.1" cy="49.5" rx="0.8" ry="0.8"/>
						
							<ellipse transform="matrix(0.5878 -0.809 0.809 0.5878 10.7296 213.009)" class="st12" cx="214.4" cy="96" rx="0.8" ry="0.8"/>
					</g>
				</g>
			</g>
		</g>
	</g>
</g>
</svg>
