<svg xmlns="http://www.w3.org/2000/svg" viewBox="0 0 558.65 73.23"><defs><style>.cls-1,.cls-2{fill:#fff;stroke:#fff;}.cls-1{stroke-miterlimit:10;stroke-width:1.5px;}.cls-2{stroke-linejoin:round;stroke-width:1.75px;}</style></defs><title>Asset 1</title><g id="Layer_2" data-name="Layer 2"><g id="logo"><path class="cls-1" d="M15.75,72.25H.75V1h19.1c2,0,4.1,0,6.4.1a57.2,57.2,0,0,1,6.2.3,40.09,40.09,0,0,1,5.3.7,28,28,0,0,1,4.6,1.2c6.4,2.3,10.7,6.1,12.8,11.5.1.3.3.7.4,1a4.18,4.18,0,0,0,.4,1c.1.6.3,1.2.4,1.8s.2,1.2.3,1.9a16.55,16.55,0,0,1,.3,3.2v1a24.23,24.23,0,0,1-3.8,13l-.3.4-4.1-2.4.4-.5a20.33,20.33,0,0,0,2.9-10.6v-.7a5.28,5.28,0,0,0-.1-1.3,6.88,6.88,0,0,0-.2-1.3,13.56,13.56,0,0,0-.6-2.9,5.82,5.82,0,0,0-.5-1.6c-1.8-4.4-5.2-7.5-10.2-9.4a34,34,0,0,0-8.9-1.8c-.8-.1-1.7-.1-2.8-.2s-2.1-.1-3.1-.1H7.35v28.5h7.2V7.15h16.7a28.36,28.36,0,0,1,8.6,2c4.3,1.8,7.3,4.6,8.8,8.6a4.88,4.88,0,0,0,.3.7,1.33,1.33,0,0,0,.3.7c.1.4.2.8.3,1.3a3.08,3.08,0,0,0,.3,1.3,3.75,3.75,0,0,1,.1,1.1v1.7a18.85,18.85,0,0,1-2.3,9.3,21.19,21.19,0,0,1-2,2.8,11.56,11.56,0,0,1-3.1,2.6,20,20,0,0,1-4.4,2,20.89,20.89,0,0,1-5.9.9,14.16,14.16,0,0,0-1.9.1c-.8,0-1.7.1-2.9.1h-5.2a19.27,19.27,0,0,1-2.4-.1h-.6v-7h-3.2l-.3,37ZM2,71.05h12.6v-36H6.15v-31h17.4c1.5,0,3,0,4.5.1s2.8.1,4,.2a34,34,0,0,1,4.9.7,25.76,25.76,0,0,1,4.2,1.2,17.65,17.65,0,0,1,10.9,10.1,6.4,6.4,0,0,1,.5,1.7,13.12,13.12,0,0,1,.6,3.1,5.07,5.07,0,0,1,.2,1.3,8.64,8.64,0,0,0,.1,1.5v.7a23,23,0,0,1-2.8,10.7l1.9,1.2a21.49,21.49,0,0,0,3.3-11.9v-.8a8.6,8.6,0,0,0-.1-1.6,10,10,0,0,0-.2-1.6c-.1-.6-.3-1.2-.4-1.7a9.36,9.36,0,0,0-.4-1.6c-.1-.3-.3-.7-.4-1a3.55,3.55,0,0,0-.4-.9c-2-5.2-6.1-8.8-12.1-10.8a35.44,35.44,0,0,0-9.7-1.9c-1.8-.1-3.9-.2-6.2-.3s-4.4-.1-6.4-.1h-18v68.7Zm18.2-30.2c.6,0,1.6,0,3,.1s2.7.1,4.1.1h2.9a10.89,10.89,0,0,0,1.9-.1,21.79,21.79,0,0,0,5.5-.9,19.45,19.45,0,0,0,4.1-1.8,11.61,11.61,0,0,0,2.9-2.4,18.39,18.39,0,0,0,1.9-2.5,13.49,13.49,0,0,0,1.6-4.1,34,34,0,0,0,.6-4.6.75.75,0,0,0-.1-.5v-1.1a4.1,4.1,0,0,0-.1-1.1,10.61,10.61,0,0,0-.5-2.3,4.86,4.86,0,0,0-.4-1.4,13.68,13.68,0,0,0-8-7.8,38.44,38.44,0,0,0-4.1-1.3,27.94,27.94,0,0,0-4-.7H15.75v25.6H19V14.65h7.5a25.66,25.66,0,0,1,3.4.1,15.1,15.1,0,0,1,6.5,1.9,8.62,8.62,0,0,1,4.1,7.8,11.57,11.57,0,0,1-.7,4.4c-1.6,3.9-4.8,5.9-9.6,6.1h-10v5.9Zm0-7.1h10a9.62,9.62,0,0,0,5.9-1.8,9.92,9.92,0,0,0,2.6-3.5,9.69,9.69,0,0,0,.7-3.9v-.1c-.1-3.2-1.3-5.5-3.6-6.8a14.64,14.64,0,0,0-6-1.7,13.62,13.62,0,0,0-2.5-.1h-7C20.15,15.85,20.15,33.75,20.15,33.75Z"/><path class="cls-1" d="M132.65,36.25v.5a33.86,33.86,0,0,1-2.8,13.9,36.56,36.56,0,0,1-7.7,11.3,34.63,34.63,0,0,1-11.3,7.6A35.57,35.57,0,0,1,97,72.35a34.54,34.54,0,0,1-13.9-2.8A38.54,38.54,0,0,1,71.65,62a34.52,34.52,0,0,1-7.6-11.4,34.2,34.2,0,0,1-2.8-13.9,35.51,35.51,0,0,1,5.6-19.2l.4-.5,3.5,2.2a41.09,41.09,0,0,1,3.9-4.8,32.51,32.51,0,0,1,13.6-8l-1.1-4,.6-.1A34.63,34.63,0,0,1,97,1.05,36.19,36.19,0,0,1,111,4c.5.2,1,.5,1.6.8a16.18,16.18,0,0,1,1.8,1c.6.3,1.1.6,1.6.9a6.38,6.38,0,0,1,.9.6c-.1.1-.1.2-.2.3s-.3.5-.8,1.2l-1.4,1.9a30.44,30.44,0,0,1,4.7,3.9l.2.2a29.65,29.65,0,0,1,4.5,5.7l.3.6-3.2,1.5-.4-.6a29.08,29.08,0,0,0-4-5.1,34.2,34.2,0,0,0-4.3-3.6l-4.7,6.5-.5-.3a22.05,22.05,0,0,0-5-2.1,25,25,0,0,0-5.4-.7,19.91,19.91,0,0,0-9.3,2.2,21.78,21.78,0,0,0-7.3,6.2l2.8,1.8-.3.5a16.61,16.61,0,0,0-2.8,9.2,15.73,15.73,0,0,0,1.3,6.5,15.8,15.8,0,0,0,3.5,5.3,17.58,17.58,0,0,0,5.2,3.7,17.15,17.15,0,0,0,6.4,1.5V18.65h.6a18.72,18.72,0,0,1,7.1,1.4,19.1,19.1,0,0,1,5.8,3.9,15.64,15.64,0,0,1,3.9,5.8,18.48,18.48,0,0,1-3.8,19.9,20.09,20.09,0,0,1-5.6,3.9,17.47,17.47,0,0,1-6.9,1.6V67a47.82,47.82,0,0,0,5.9-.7,31.06,31.06,0,0,0,11.3-5,32.08,32.08,0,0,0,8.4-9.2,29.87,29.87,0,0,0,4.1-15.2v-.5ZM97,71.05a34.15,34.15,0,0,0,13.2-2.6,36.93,36.93,0,0,0,10.9-7.2,34.75,34.75,0,0,0,7.4-10.7,34.36,34.36,0,0,0,2.9-13.2h-3.1a35.11,35.11,0,0,1-1.2,7.9,30.79,30.79,0,0,1-11.8,16.8,32.06,32.06,0,0,1-11.8,5.2,19.09,19.09,0,0,1-3.3.6c-1.1.1-2.2.2-3.4.2h-.7V55a18.31,18.31,0,0,1-6.9-1.6,20.09,20.09,0,0,1-5.6-3.9,16.71,16.71,0,0,1-3.8-5.8,18.22,18.22,0,0,1-1.4-7,18.5,18.5,0,0,1,2.6-9.4l-1.7-1.1a20.36,20.36,0,0,0-3.2,10.9,19.94,19.94,0,0,0,1.5,7.7,20.22,20.22,0,0,0,4.4,6.5l.4.5-7.5,7.3-.4-.4-.1-.1a28.7,28.7,0,0,1-6.1-8.6,35.11,35.11,0,0,1-2.9-9.9,29.91,29.91,0,0,1,.5-10.3,29.6,29.6,0,0,1,3.9-9.8l-2.4-1.5a33.1,33.1,0,0,0-5.1,18A33.42,33.42,0,0,0,65,49.85a34.48,34.48,0,0,0,7.4,10.9,35.64,35.64,0,0,0,10.9,7.4A33.09,33.09,0,0,0,97,71.05Zm-25.9-50.2a28.76,28.76,0,0,0-3.7,9.3,29.42,29.42,0,0,0-.5,9.8,28,28,0,0,0,2.6,9.4,28.79,28.79,0,0,0,5.7,8.2l5.8-5.7a20.75,20.75,0,0,1-4.3-6.7,21.33,21.33,0,0,1-1.5-7.9,20.86,20.86,0,0,1,3.4-11.5Zm4.4-5.7a22,22,0,0,0-2,2.3c-.6.8-1.2,1.6-1.7,2.4l7.4,4.8a20.71,20.71,0,0,1,7.7-6.7,21.28,21.28,0,0,1,9.9-2.4,20.76,20.76,0,0,1,10.6,2.8l4-5.6a29.18,29.18,0,0,0-9.8-3.7h-.3c-.5-.1-1.2-.1-2.1-.2a29.08,29.08,0,0,0-3-.1h-1.7a5.9,5.9,0,0,0-1.4.2,23.26,23.26,0,0,0-3.3.6l-.5.2-.7-2.2A29,29,0,0,0,75.45,15.15Zm-.8,43.6.1.1.3-.5ZM97,2.25a28.28,28.28,0,0,0-4.1.3,27,27,0,0,0-4.1.8l.8,2.6a37.89,37.89,0,0,1,7.3-.8,30.75,30.75,0,0,1,16.5,4.7c.4-.5.8-1,1.1-1.4s.5-.7.7-1A33,33,0,0,0,97,2.25Zm15.7,8.5a30.11,30.11,0,0,0-15.8-4.4c-1.2,0-2.3.1-3.5.2a13.59,13.59,0,0,0-3.5.7l.3,1,1.4-.3c.4-.1.9-.1,1.4-.2s1-.1,1.5-.2,1.1-.1,1.7-.1c1.1,0,2.1,0,3.1.1s1.7.1,2.2.2l.3.1a27.75,27.75,0,0,1,10.3,3.8Zm-15.2,43a17.62,17.62,0,0,0,6.4-1.5,15,15,0,0,0,5.2-3.7,15.8,15.8,0,0,0,3.5-5.3,17.52,17.52,0,0,0,1.3-6.5,15.73,15.73,0,0,0-1.3-6.5,17.36,17.36,0,0,0-8.7-9,19.43,19.43,0,0,0-6.4-1.6Zm20.6-38.7a31.31,31.31,0,0,0-4.4-3.6l-.6.9a31.31,31.31,0,0,1,4.4,3.6,27.88,27.88,0,0,1,3.9,4.9l1-.5a13.09,13.09,0,0,0-1.9-2.7c-.7-.8-1.4-1.7-2.2-2.5Z"/><path class="cls-1" d="M147,72.25v-4.7h-4.7V1h11.5v13.2H159v45.1h34.3v12.9H147Zm0-6V14.15h5.6v-12h-9v64.2H147Zm10.8,0v-5.8h-5.2v-45h-4.4v50.8Zm34.5,4.8V60.55h-33.2v7h-10.8v3.5Zm-34.5-11.7V15.45h-4v43.9Z"/><path class="cls-1" d="M209.55,72.25v-4.6h-2.5v-22l-24.8-40.5h3.8L183.55,1h60.7l-4,6.4h6.5l-23.2,37.9v27Zm0-5.8V45l6.8-11-2.8-4.5-6.3,10.3-20.7-33.4h-2.2l23.8,38.8v21.2l1.4.1Zm-9.5-61.4,13.6,22.1,12-19.7h13l3.3-5.2h-56.4l1.7,2.8Zm7.3,32.4,5.6-9.1-13.5-21.9h-11.3Zm14.9,33.6V45l.1-.1,22.2-36.2h-5.1l-22.4,36.7v22.4h-6.2v3.4l11.4-.1Zm-6.4-4.6V45l.1-.1,22.1-36.3h-11.6l-12,19.7L218,34l-7,11.3v21.2Z"/><path class="cls-1" d="M282.05,72.25V45.65H278v26.7h-5.5V45.65h-8.4V1h19.1v30.9h25.2v-23h5.7V1h8.5v7.8h3.9v55.8h-3.9v7.6h-40.5Zm-9.6-27.9v-33h6.8v20.5h2.9V2.25h-16.8v42.2h7.1Zm4.3,0V40l5.3.1V33H278V12.55h-4.4v31.9h3.2Zm0,26.8V45.65h-3.2v25.6h3.2Zm5.3-26.8v-3.2H278v3.2Zm1.2-4.3,25.2.2V33h-25.2v7.1Zm38.2,31.1v-6.5h-5.2V41.25h-6.6v4.4h-26.4v25.6l38.2-.1Zm-13.1-26.8v-3.2h-25.2v3.2Zm13.1,19.1V10h-6.2V33h-5.6v7.1h7.6v23.3h4.2Zm-7.4-31.6V10h-4.5v21.9Zm7.4-23V2.25h-6.2v6.6Zm3.9,54.6V10h-2.8v53.5Z"/><path class="cls-2" d="M332.35,72.25l24.2-57.5h4.1l2.7-6.5h5.3l3.1-7.2h6.5l3,7.2H385l27,64.1h-18.7l-5-11.9h-27l-4.7,11.9h-24.2Zm23.4-1.2,4.3-10.7h-13.3l6.5-15.4h-4.9l11.9-29h-2.8l-23.2,55.1Zm4.6-11.9,3.1-7.6h21.2l-2.8-6.5h-27.4l-6,14.2,11.9-.1Zm-10.2-15.4h3.6L365.35,16h-3.8Zm4.8,0h26.4L370,16h-3.3Zm32.7,15.4-2.6-6.4h-20.8l-2.5,6.4Zm-19.4-49.7h-4l-2.2,5.3h4Zm29.6,42.1-17.3-42.1h-11l-2.3,5.3h3.6l11.9,29h6.4l3.2,7.7,5.5.1Zm-17.8-43.3-2.5-6h-4.9l-2.5,6Zm30.1,62.8-26.1-61.6h-2.3l17.8,43.3h-6.8l3.2,7.6h-6.4l4.4,10.7ZM388.25,45h-5.1l2.6,6.5h5.1Zm5.8,14.2-2.6-6.4h-5.1l2.6,6.4Z"/><path class="cls-1" d="M450.05,72.25a35,35,0,0,1-11.2-1.8,38.38,38.38,0,0,1-9.9-5,32.1,32.1,0,0,1-7.8-7.8,36.91,36.91,0,0,1-5.1-10.1L416,47l10.3-3.4c-.3-1.2-.6-2.3-.8-3.5a20.68,20.68,0,0,1-.3-3.5,23.45,23.45,0,0,1,1.5-8.3,27.48,27.48,0,0,1,4.1-7.3l-8.4-7.1.4-.4A35.24,35.24,0,0,1,450,.75a36.56,36.56,0,0,1,13.6,2.6,35.93,35.93,0,0,1,11.6,7.8l.4.4L465.15,22l-.4-.4a20.08,20.08,0,0,0-14.8-6.1,20.94,20.94,0,0,0-8.9,1.9,20,20,0,0,0-7.1,5.4,21.7,21.7,0,0,0-3.8,6.4,20.07,20.07,0,0,0-1.3,7.3,19.08,19.08,0,0,0,1,6.4,21.1,21.1,0,0,0,3,6,22.28,22.28,0,0,0,4.6,4.6,20,20,0,0,0,5.8,3,21.38,21.38,0,0,0,6.7,1.1,20.73,20.73,0,0,0,14.8-6.2l.5-.4,10.2,10.3-.4.4a36.29,36.29,0,0,1-11.5,7.7A30.43,30.43,0,0,1,450.05,72.25Zm-32.7-24.4a35.91,35.91,0,0,0,5,9.5,33.54,33.54,0,0,0,16.9,12.1,34.4,34.4,0,0,0,23.8-.9,31.87,31.87,0,0,0,5.8-3,32.49,32.49,0,0,0,5-4l-8.7-8.7a19.79,19.79,0,0,1-6.7,4.5,22,22,0,0,1-8.6,1.7,23.3,23.3,0,0,1-7-1.1,21.5,21.5,0,0,1-6.2-3.2,22.77,22.77,0,0,1-4.9-4.9,20.82,20.82,0,0,1-3.2-6.3c-.3-1.1-.6-2.2-.8-3.3a19.53,19.53,0,0,1-.3-3.4,22.77,22.77,0,0,1,1.4-7.7,23.42,23.42,0,0,1,4-6.8,22.7,22.7,0,0,1,7.6-5.7,21.64,21.64,0,0,1,9.3-2,22.51,22.51,0,0,1,8.2,1.5,21,21,0,0,1,7,4.5l8.8-8.7a32.75,32.75,0,0,0-11-7.2,35.17,35.17,0,0,0-12.9-2.4,33.47,33.47,0,0,0-14.3,3.1,32,32,0,0,0-11.6,8.7l8.4,7-.4.5a25.59,25.59,0,0,0-4.2,7.1,22.37,22.37,0,0,0-1.5,8.1,24.47,24.47,0,0,0,1.1,7.1l.2.6Zm32.8,20.5a30.41,30.41,0,0,1-12.3-2.5,31.64,31.64,0,0,1-10-6.8,32.81,32.81,0,0,1-6.8-10,29.74,29.74,0,0,1-2.5-12.3,29.28,29.28,0,0,1,2.5-12.2,32.31,32.31,0,0,1,16.8-16.8,31.26,31.26,0,0,1,24.5,0,32.31,32.31,0,0,1,16.8,16.8,29.61,29.61,0,0,1,2.5,12.2,30.41,30.41,0,0,1-2.5,12.3,31.64,31.64,0,0,1-6.8,10,32.81,32.81,0,0,1-10,6.8A30.57,30.57,0,0,1,450.15,68.35Zm0-62a29.29,29.29,0,0,0-11.8,2.4,30.72,30.72,0,0,0-9.6,6.5,29.11,29.11,0,0,0-6.5,9.6,29.29,29.29,0,0,0-2.4,11.8,29,29,0,0,0,2.4,11.8,30.72,30.72,0,0,0,6.5,9.6,31.34,31.34,0,0,0,9.6,6.5,29,29,0,0,0,11.8,2.4,29.64,29.64,0,0,0,11.8-2.4,30.72,30.72,0,0,0,9.6-6.5,33.21,33.21,0,0,0,6.5-9.6,29.29,29.29,0,0,0,2.4-11.8,29.64,29.64,0,0,0-2.4-11.8A30.66,30.66,0,0,0,462,8.75,29.29,29.29,0,0,0,450.15,6.35Z"/><path class="cls-1" d="M528.85,31.85l25.2,36.7H546l2.6,3.9h-47.3v-3.9h-13.1l-.1-67.4h14.5v2.2h6.3v24.5L525,10.15h8.4l8.1-9.1H557Zm-27.6,35.5V52.85l-6.6,7.2V3.35h6.6v-1h-12l.1,65.1,11.9-.1Zm0-22,6.3-6.9v-7.3l-6.3,6.9V4.55h-5.4V57l5.4-5.9Zm1.2-40.8v30.2l5.1-5.6V4.55Zm43.8,66.6-1.8-2.6h-5.7l-20.9-30.2,7.9-8.8-1.4-2.1-15.6,17.1v24h-6.3v2.6Zm-38.7-30.9-5.1,5.6v3.9l5.1-5.6Zm-5.1,11.3v15.9h5.1V46Zm6.3-12.8v4l15.7-17.3,2.1,3.2,15.8-17.2h-8.7Zm0-9v7.3l23.3-25.7h-6.7Zm18.6,2-.8-1.2-7,7.8,19.9,29h4.3l-20.9-30.6Zm17.7,35.6h6.7l-23.7-34.6-3.8,4.2Zm-3.2-65-7,7.8h10.2l-17.7,19.5.9,1.2,25.9-28.5Z"/></g></g></svg>